<svg width="146" height="150" viewBox="0 0 146 150" fill="none" xmlns="http://www.w3.org/2000/svg">
<g clip-path="url(#clip0_250_6)">
<path d="M58.0697 95.2752C58.3446 95.0034 58.6041 94.7164 58.8468 94.4157C62.6991 88.9455 66.5878 83.5082 70.3608 78.0051C78.8955 65.5169 87.2615 52.9168 95.9054 40.5076C102.301 31.3226 109.218 22.5163 116.949 14.3851C120.775 10.364 124.79 6.54709 129.485 3.51725C132.022 1.8706 134.72 0.625729 137.712 0.10868C138.504 0.00266772 139.306 -0.00617612 140.1 0.0823383C140.989 0.154791 141.423 0.632311 141.492 1.5248C141.624 2.94092 141.135 4.22201 140.583 5.47676C138.824 9.48142 136.463 13.1403 134.059 16.7761C129.799 23.2211 125.554 29.6726 121.238 36.0847C119.006 39.4011 116.52 42.556 114.357 45.9185C109.119 54.076 104.007 62.3158 98.8319 70.5162C96.9768 73.4538 95.1614 76.4211 93.1939 79.2829C90.813 82.7541 88.3164 86.1495 85.8198 89.5416C81.7558 95.0513 77.1396 100.08 72.2291 104.852C69.005 107.974 65.3974 110.609 61.7732 113.22C60.0206 114.492 58.3739 115.898 56.6246 117.172C54.7464 118.542 52.9409 120.041 50.7122 120.861C48.9431 121.52 47.4385 121.134 46.1919 119.679C44.8129 118.068 43.9664 116.158 43.3051 114.189C42.1775 110.879 41.278 107.483 40.0347 104.22C38.5797 100.39 36.9032 96.6452 35.2366 92.8942C33.1468 88.1946 30.9875 83.5214 29.5391 78.5749C28.6959 75.6998 28.1437 72.7754 28.4016 69.7455C28.7323 65.8891 30.7163 63.2907 34.3074 61.8745C35.2117 61.4822 36.142 61.1521 37.0917 60.8866C39.7702 60.2279 41.8699 61.3476 43.6556 63.2215C45.9075 65.5861 47.4087 68.4282 48.5529 71.4251C50.4278 76.3288 52.0812 81.305 53.9263 86.2252C54.9183 88.8796 56.1088 91.4682 57.2331 94.0732C57.4744 94.4985 57.7544 94.9009 58.0697 95.2752Z" fill="#60A96E"/>
<path d="M5.87938 78.8153C5.89644 83.5302 6.35252 88.2335 7.24175 92.8645C8.23378 98.2392 9.81771 103.373 12.4796 108.162C16.3485 115.124 21.8377 120.551 28.4512 124.912C32.6148 127.675 37.0827 129.953 41.7674 131.702C45.9273 133.24 50.1632 134.624 54.4521 135.766C62.4351 137.911 70.7072 138.791 78.965 138.375C84.2438 138.139 89.4773 137.293 94.5595 135.852C104.675 132.928 113.547 127.892 120.994 120.413C127.177 114.214 131.873 106.702 134.73 98.4401C137.407 90.8139 138.531 82.7328 138.037 74.669C137.503 65.4614 135.115 56.4546 131.016 48.1843C129.644 45.3883 127.994 42.7273 126.506 39.9873C126.256 39.5346 126.114 39.0311 126.089 38.5152C126.019 36.7808 126.429 35.0606 127.273 33.5423C128.232 31.866 129.542 31.8462 130.656 33.4402C134.645 39.15 137.899 45.336 140.341 51.853C142.085 56.5232 143.364 61.3523 144.161 66.2711C145.054 71.4904 145.323 76.7966 144.964 82.079C144.631 86.8764 143.825 91.6296 142.557 96.2698C139.749 106.464 134.764 115.934 127.941 124.032C121.859 131.32 114.405 137.353 105.998 141.79C101.443 144.21 96.6299 146.116 91.6496 147.471C87.2087 148.645 82.6716 149.424 78.092 149.796C72.7846 150.267 67.5468 149.885 62.3056 149.137C57.3618 148.384 52.5048 147.147 47.8055 145.442C36.0897 141.293 26.4142 134.163 18.0184 125.182C13.3897 120.213 9.54028 114.577 6.60025 108.465C4.60673 104.351 3.05498 100.039 1.97081 95.6012C0.56265 89.9034 -0.0899199 84.0464 0.0297562 78.1797C0.0875917 74.4532 0.506168 70.7409 1.27969 67.0944C1.89728 64.04 2.67656 61.0202 3.61425 58.0477C6.16676 50.3666 10.0478 43.189 15.082 36.8389C21.0114 29.318 28.4198 23.0816 36.8536 18.5116C41.6215 15.9218 46.6704 13.8821 51.9026 12.4322C57.0126 10.9923 62.2566 10.0742 67.5534 9.69219C72.497 9.33981 77.4736 9.241 82.3874 9.93589C85.7268 10.4526 89.0378 11.1373 92.3076 11.9876C95.1547 12.6858 97.9787 13.5256 100.753 14.4642C102.562 15.0767 104.275 15.9725 106.014 16.7695C106.374 16.9614 106.708 17.1994 107.006 17.4776C107.929 18.2548 108.233 18.9991 107.929 19.6544C107.701 20.1435 107.312 20.5405 106.827 20.78C106.342 21.0195 105.789 21.0871 105.26 20.9717C102.734 20.3361 100.194 19.7236 97.7142 18.9299C92.1985 17.1581 86.6895 15.3665 80.9258 14.5597C74.8163 13.6778 68.615 13.6235 62.4908 14.3983C54.6533 15.396 47.0626 17.8017 40.0876 21.4987C35.9678 23.686 32.0983 26.3118 28.5471 29.3301C25.6254 31.7776 22.9347 34.4861 20.5084 37.4218C15.9377 42.9698 12.3351 49.243 9.85078 55.9795C8.39199 59.8484 7.33708 63.8567 6.70275 67.9408C6.1836 71.5371 5.97859 75.1861 5.63468 78.8087L5.87938 78.8153Z" fill="#60A96E"/>
</g>
<defs>
<clipPath id="clip0_250_6">
<rect width="145.116" height="150" fill="white"/>
</clipPath>
</defs>
</svg>
