<svg width="263" height="250" viewBox="0 0 263 250" fill="none" xmlns="http://www.w3.org/2000/svg">
<g clip-path="url(#clip0_250_21)">
<path d="M261.817 126.878C261.817 137.987 261.845 149.091 261.817 160.2C261.737 184.105 261.644 208.011 261.537 231.917C261.537 234.756 261.082 237.507 259.725 239.978C258.034 243.053 255.436 245.206 252.279 246.777C247.024 249.385 241.384 249.709 235.711 249.731C207.826 249.852 179.941 249.938 152.056 249.989C135.582 250.018 119.124 249.998 102.683 249.929C89.4708 249.892 76.2604 249.83 63.0519 249.742C56.8851 249.703 50.7073 249.797 44.557 249.451C38.5164 249.116 32.8768 247.556 29.1042 242.241C26.6825 238.831 25.3317 234.932 24.5684 230.885C23.0363 222.818 21.5811 214.734 20.3181 206.624C19.1704 199.227 18.3357 191.797 17.3307 184.356C16.529 178.431 15.6833 172.511 14.8487 166.586C14.025 160.573 13.2507 154.549 12.4324 148.53C11.6142 142.512 10.7466 136.499 9.93388 130.48C9.11017 124.374 8.3304 118.257 7.51768 112.145C6.91363 107.62 6.25465 103.106 5.67257 98.581C4.98066 93.2379 4.33818 87.8893 3.67922 82.5407C3.09713 77.8731 2.49307 73.2054 1.93845 68.5323C1.44422 64.3149 0.746813 60.0975 0.593054 55.8637C0.226963 45.4996 0.0237905 35.1319 -0.0164795 24.7606C-0.0164795 22.564 0.735838 20.2412 1.63093 18.1709C3.13557 14.6839 6.30958 13.0365 9.86798 12.5038C15.9579 11.5868 22.0863 10.9168 28.2091 10.3073C35.5291 9.56595 42.8601 8.93994 50.1746 8.32491C58.1426 7.66594 66.0996 7.06188 74.095 6.46332C81.6127 5.91419 89.1304 5.32111 96.6536 4.84336C103.633 4.40405 110.618 4.05261 117.603 3.74509C132.578 3.04769 147.553 2.33931 162.533 1.73526C172.259 1.34538 181.995 1.07629 191.731 0.862122C207.349 0.510674 222.966 0.109822 238.589 0.0219601C243.575 -0.0109881 248.611 0.615031 253.344 2.56447C258.078 4.5139 260.554 8.05583 261.581 12.8882C263.053 19.6152 262.641 26.4409 262.641 33.2392C262.641 49.1917 262.641 65.1496 262.509 81.102C262.405 96.368 262.163 111.634 261.96 126.9L261.817 126.878ZM40.9711 142.803C43.8321 140.332 46.3746 138.042 49.0104 135.884C62.4753 124.857 75.9566 113.854 89.4544 102.875C92.0353 100.778 94.6382 98.6799 97.4059 96.8348C101.118 94.3746 105.094 94.0561 109.042 96.357C111.467 97.7189 113.766 99.2938 115.912 101.063C120.579 105.083 125.088 109.3 129.607 113.49C130.442 114.264 131.002 114.319 131.919 113.671C135.384 111.217 138.86 108.778 142.408 106.456C150.996 100.838 159.596 95.2423 168.272 89.7564C170.156 88.6459 172.165 87.763 174.258 87.126C179.101 85.4786 183.219 87.2688 186.987 90.2122C193.549 95.3411 199.216 101.321 204.438 107.746C210.369 115.05 216.327 122.331 222.23 129.657C222.567 130.162 223.051 130.553 223.616 130.777C224.181 131.001 224.801 131.047 225.393 130.909C227.234 130.557 229.093 130.311 230.961 130.173C232.274 130.09 232.609 129.596 232.609 128.322C232.763 119.135 232.905 109.954 233.235 100.772C233.729 86.9448 234.558 73.123 234.882 59.2903C235.126 48.2726 234.291 37.2575 232.389 26.4025C232.06 24.4915 231.84 24.2059 229.841 24.0906C226.151 23.8709 222.45 23.5689 218.754 23.5909C202.664 23.6843 186.575 23.7392 170.49 24.0796C155.049 24.4091 139.613 25.0351 124.171 25.5953C112.979 26.0016 101.792 26.4684 90.6076 26.9956C82.9196 27.358 75.1878 27.7863 67.4889 28.33C54.683 29.2305 41.8826 30.2245 29.0823 31.2404C27.0614 31.4051 25.0681 31.9158 22.9594 32.2837C23.0747 32.9098 23.1516 33.3051 23.223 33.7005C24.0137 38.1924 24.8704 42.6789 25.5898 47.1873C26.4519 52.5469 27.2372 57.9284 28.0279 63.299C28.8846 69.0796 29.7229 74.862 30.543 80.6462C31.3557 86.3847 32.0751 92.1396 32.9537 97.8726C34.0959 105.363 35.3022 112.844 36.5725 120.316C37.6268 126.521 38.8185 132.71 39.9826 138.899C40.2407 140.145 40.6141 141.331 40.993 142.814L40.9711 142.803ZM209.402 133.429C209.06 132.949 208.694 132.488 208.304 132.045C203.17 126.845 198.052 121.612 192.873 116.466C189.507 113.117 186.196 109.696 182.593 106.62C179.601 104.067 175.91 102.903 171.979 104.1C169.746 104.734 167.631 105.728 165.718 107.043C157.976 112.611 150.37 118.361 142.715 124.066C141.776 124.769 140.876 125.516 139.915 126.263C140.048 126.493 140.196 126.713 140.359 126.922C143.94 130.826 147.498 134.742 151.139 138.591C151.64 139.016 152.284 139.232 152.94 139.195C157.679 138.899 162.418 138.646 167.135 138.146C179.903 136.872 192.659 135.516 205.416 134.171C206.673 134.039 207.903 133.715 209.402 133.429ZM70.7727 141.463L71.0363 141.941L121.59 140.843L121.914 140.425C120.129 137.482 118.493 134.434 116.532 131.639C112.255 125.483 106.648 120.53 101.261 115.396C100.651 114.813 100.163 114.995 99.6134 115.456C96.714 117.757 93.7925 120.025 90.8711 122.293C84.9185 126.922 79.0867 131.699 74.084 137.383C72.9144 138.646 71.871 140.079 70.7727 141.463Z" fill="#F6E953"/>
</g>
<defs>
<clipPath id="clip0_250_21">
<rect width="262.729" height="250" fill="white"/>
</clipPath>
</defs>
</svg>
