<svg width="159" height="150" viewBox="0 0 159 150" fill="none" xmlns="http://www.w3.org/2000/svg">
<g clip-path="url(#clip0_250_10)">
<path d="M77.6048 149.99C72.8127 150.079 68.0536 149.556 63.3571 148.829C59.111 148.167 54.931 147.136 50.8648 145.747C46.4557 144.275 42.2046 142.367 38.175 140.052C31.7981 136.34 26.0234 131.682 21.0488 126.236C15.1233 119.847 10.2008 112.599 6.44868 104.738C4.30225 100.221 2.67583 95.4759 1.60064 90.5928C0.477556 85.4347 -0.207493 80.2239 0.0757478 74.9539C0.266771 71.3584 0.7575 67.7694 1.28775 64.2035C2.2758 57.644 4.53514 51.4661 7.23581 45.4526C10.9912 37.0062 16.328 29.3544 22.959 22.9089C29.2397 16.8132 36.4261 12.0236 44.3075 8.24049C48.3189 6.30052 52.4799 4.68561 56.7503 3.41134C62.5125 1.74488 68.4397 0.712385 74.4265 0.332248C77.1832 0.13816 79.953 0.0954007 82.7196 0.0296084C86.899 -0.0690802 91.0192 0.529628 95.1262 1.24019C100.085 2.11175 104.949 3.45679 109.651 5.25681C120.08 9.20252 129.507 15.4022 137.257 23.4122C140.443 26.6549 143.337 30.172 145.905 33.9225C149.281 38.871 152.006 44.232 154.014 49.8739C156.023 55.6371 157.329 61.6214 157.904 67.697C158.357 72.1932 158.306 76.7259 157.752 81.2108C157.227 85.8584 156.298 90.4516 154.976 94.9384C152.095 104.498 147.257 113.356 140.768 120.949C133.225 129.805 124.359 137.009 113.883 142.154C109.413 144.344 104.73 146.07 99.9083 147.306C95.0534 148.546 90.0903 149.317 85.0876 149.609C82.5845 149.753 80.0914 149.859 77.6048 149.99ZM45.9872 101.175V101.07C49.7681 100.899 53.5622 100.777 57.3234 100.544C63.0409 100.189 68.7551 99.7741 74.4496 99.3399C76.9889 99.1458 79.5183 98.8596 82.051 98.58C83.8427 98.3793 85.631 98.1523 87.4128 97.8727C89.0398 97.6194 89.0925 97.5766 88.9871 95.9285C88.7137 91.5863 88.3712 87.2505 88.0814 82.9082C87.6532 76.5461 87.2514 70.1807 86.8266 63.8284C86.6652 61.427 86.517 59.0223 86.2601 56.6308C86.1185 55.3149 85.6014 54.9004 84.284 54.9103C80.2264 54.9432 76.1688 54.9432 72.1178 55.134C67.6024 55.3478 63.1035 55.8906 58.5848 56.0485C50.0678 56.3413 41.5442 56.4663 33.0206 56.6406C30.9227 56.6834 30.9424 56.6406 30.9194 58.7131C30.8371 67.1674 31.2487 75.6382 30.2607 84.0728C30.0775 85.5923 29.9862 87.1214 29.9873 88.6519C30.0137 91.9876 30.1487 95.32 30.2146 98.6556C30.2607 101.06 30.2409 101.139 32.7143 101.172C37.177 101.235 41.587 101.175 46.0003 101.175H45.9872ZM113.711 73.0657H113.461C113.231 65.2956 112.993 57.5234 112.75 49.7489C112.75 49.4002 112.529 48.8673 112.272 48.762C112.015 48.6567 111.511 48.9035 111.241 49.1403C108.682 51.3707 106.15 53.6306 103.61 55.884L94.3325 64.1081C93.0151 65.2825 92.2905 66.6542 92.4947 68.5162C92.7647 70.9899 92.8866 73.4835 93.0315 75.9704C93.2258 79.2601 93.4234 82.5826 93.542 85.8919C93.6276 88.2736 94.586 89.9447 96.9047 90.7902C98.6239 91.4152 100.304 92.1521 101.993 92.8528C105.451 94.287 108.908 95.7224 112.364 97.1589C113.112 97.4681 113.511 97.2016 113.557 96.3825C113.616 95.3956 113.705 94.4087 113.705 93.4219C113.727 86.6387 113.733 79.8533 113.725 73.0657H113.711Z" fill="#383F79"/>
</g>
<defs>
<clipPath id="clip0_250_10">
<rect width="158.197" height="150" fill="white"/>
</clipPath>
</defs>
</svg>
