<svg width="186" height="193" viewBox="0 0 186 193" fill="none" xmlns="http://www.w3.org/2000/svg">
<path d="M3.4382 141.029C5.66748 132.875 8.36933 124.857 11.5301 117.018C13.7848 111.419 16.1357 105.861 18.5828 100.344C20.591 95.8318 22.7917 91.4235 24.9615 86.9959C26.8617 83.1175 28.8035 79.2589 30.787 75.4203C32.8915 71.3508 35.0655 67.3185 37.2143 63.272C39.2915 59.3554 41.3735 55.4389 43.4603 51.5225C45.5421 47.6421 47.6247 43.7583 49.7485 39.8966C51.6623 36.4186 53.5704 32.9353 55.5963 29.5241C58.827 24.0893 62.2241 18.7616 66.9252 14.4245C68.7978 12.6998 70.8593 11.2511 73.326 10.4922C76.8449 9.40717 80.1403 10.04 83.2572 11.8823C87.4313 14.3472 90.6117 17.8776 93.5551 21.6394C98.5724 28.0785 102.663 35.1131 106.42 42.3347C113.49 55.9145 120.589 69.4806 127.452 83.181C135.386 98.9641 142.639 115.058 149.209 131.462C151.125 136.23 153.084 140.98 154.884 145.788C155.416 147.194 155.668 148.691 155.624 150.193C155.52 152.493 153.892 153.88 151.818 154.432C149.624 155.016 147.334 155.527 145.079 155.538C139.603 155.569 134.125 155.317 128.651 155.132C124.212 154.999 119.785 154.721 115.349 154.589C110.914 154.457 106.536 154.341 102.133 154.381C98.1653 154.421 94.1907 154.563 90.2409 154.894C85.2176 155.324 80.2269 156.005 75.2145 156.514C68.243 157.223 61.2663 157.938 54.2838 158.529C49.0611 158.973 43.8249 159.413 38.5885 159.51C33.5521 159.604 28.5047 159.38 23.4782 159.053C19.7907 158.824 16.1523 158.084 12.6674 156.854C8.65997 155.422 4.95824 153.481 2.46713 149.8C1.77695 148.775 1.45877 147.82 1.90343 146.564C2.51238 144.76 2.93242 142.88 3.4382 141.029ZM14.1443 152.472L14.2334 152.304C15.1171 152.489 15.9931 152.715 16.8804 152.846C21.0965 153.482 25.3598 153.748 29.6212 153.64C34.9222 153.492 40.2324 153.43 45.5228 153.11C51.8689 152.728 58.1885 152.125 64.4897 151.59C69.5636 151.174 74.6442 150.68 79.7236 150.244C82.7511 149.99 85.7847 149.686 88.8199 149.55C91.4523 149.429 94.0881 149.549 96.7248 149.505C100.435 149.456 104.144 149.331 107.855 149.304C114.383 149.265 120.903 149.253 127.416 149.267C133.205 149.279 139.01 149.367 144.811 149.338C145.998 149.321 147.178 149.159 148.325 148.856C149.56 148.548 149.987 147.703 149.704 146.457C149.562 145.864 149.372 145.284 149.136 144.721C147.34 140.341 145.546 135.961 143.717 131.594C138.637 119.489 133.641 107.346 128.426 95.2984C122.886 82.4963 116.737 69.9851 109.979 57.7648C105.444 49.5741 100.657 41.5383 95.4344 33.7701C93.5181 30.9265 91.6602 28.0808 90.354 24.8729C89.0156 21.5839 87.2194 18.5128 84.6915 15.9461C82.6642 13.8929 80.3126 12.5752 77.3046 13.0229C75.148 13.3498 73.3334 14.4648 71.6584 15.7845C68.7948 18.0618 66.4699 20.8449 64.4126 23.828C62.2746 26.9251 60.23 30.0865 58.279 33.3121C56.6719 35.9594 55.2412 38.7166 53.7586 41.4379C52.8907 43.0368 52.0638 44.6578 51.2427 46.2841C49.7485 49.2336 48.2543 52.1831 46.802 55.1514C45.4996 57.81 44.2559 60.4919 42.9921 63.1683C41.6468 66.0321 40.3139 68.8993 38.9934 71.7699C37.6344 74.7191 36.286 77.6737 34.9483 80.6336C33.5677 83.671 32.1923 86.7109 30.8223 89.7536C29.4432 92.8251 28.08 95.9046 26.6985 98.9718C25.2722 102.15 23.8333 105.32 22.4046 108.494C20.9759 111.668 19.571 114.794 18.1689 117.949C17.5423 119.354 16.6616 120.722 16.4003 122.194C15.8589 125.198 14.9463 128.123 13.6833 130.901C13.0916 132.218 13.0725 133.891 11.623 134.769C11.5277 134.827 11.568 135.116 11.541 135.268C11.2662 136.776 11.1161 138.319 10.6713 139.774C10.085 141.746 9.29752 143.66 8.56728 145.59C7.80823 147.598 8.17275 149.231 9.9637 150.388C11.2657 151.241 12.7479 151.792 14.1443 152.472Z" fill="#AC3635"/>
<path d="M81.1945 112.627C80.4556 113.82 79.8208 115.096 78.9521 116.181C78.1722 117.153 77.4634 117.111 76.9101 115.983C76.0803 114.361 75.4249 112.656 74.9549 110.897C73.5251 105.294 72.8748 99.554 72.3857 93.8075C71.8663 87.655 71.4045 81.5037 71.037 75.3386C70.7582 70.478 70.6592 65.6087 70.5323 60.7355C70.436 57.1146 70.3195 53.4882 70.4047 49.852C70.509 45.1 70.627 40.3374 71.0966 35.6133C71.306 33.5227 71.9157 31.2925 73.8296 29.8539C74.5608 29.2793 75.4198 28.8889 76.3341 28.7155C77.2485 28.5422 78.1915 28.5911 79.0837 28.858C81.5288 29.5287 82.8719 31.2641 83.6202 33.5993C84.7335 37.0761 84.9912 40.6364 84.8453 44.2559C84.6627 48.8309 84.5156 53.4084 84.322 57.984C84.1765 61.3107 83.9701 64.6352 83.768 67.9573C83.5769 71.1594 83.323 74.366 83.1555 77.5746C82.9431 81.57 82.7796 85.5717 82.6171 89.57C82.4666 93.3654 82.388 97.1626 82.2154 100.959C82.0416 104.813 81.8439 108.675 80.9873 112.458L81.1945 112.627Z" fill="#AC3635"/>
<path d="M76.1198 135.998C73.247 135.21 71.2959 132.997 71.2593 130.138C71.2021 125.844 74.1894 122.584 78.8253 122.605C80.761 122.576 82.6377 123.277 84.0816 124.568C86.8606 127.037 86.7742 131.353 83.9423 134.083C82.9221 135.06 81.6623 135.752 80.2892 136.088C78.9162 136.424 77.4783 136.393 76.1198 135.998Z" fill="#AC3635"/>
</svg>
