<svg width="153" height="151" viewBox="0 0 153 151" fill="none" xmlns="http://www.w3.org/2000/svg">
<path d="M0 78.3913C0.119257 73.3796 0.711132 68.3905 1.76774 63.4906C3.43334 55.4367 6.36592 47.6997 10.4556 40.5694C17.5367 28.1537 27.1638 18.1862 39.4643 10.9023C45.1787 7.51831 51.3114 4.90095 57.7054 3.11727C63.4088 1.55628 69.2509 0.558365 75.1482 0.137787C78.7967 -0.0939754 82.4578 -0.0343774 86.0969 0.316017C88.2538 0.490886 90.3871 0.938143 92.5339 1.23407C96.3009 1.75532 99.9404 2.79108 103.54 3.98489C112.65 7.03873 121.061 11.8831 128.281 18.2347C135.501 24.5863 141.386 32.3176 145.59 40.9763C148.01 45.9197 149.838 51.1324 151.038 56.5059C152.54 63.2316 153.325 70.0279 152.856 76.9016C152.54 80.9702 152.009 85.0192 151.266 89.0314C150.085 95.7975 147.606 102.147 144.42 108.2C136.189 123.911 122.827 136.312 106.569 143.328C102.013 145.294 97.2811 146.82 92.4367 147.885C87.4428 148.945 82.3751 149.62 77.2782 149.902C72.3641 150.219 67.5069 149.832 62.68 149.126C50.1406 147.348 38.2545 142.416 28.1298 134.79C19.848 128.634 13.0361 120.708 8.18803 111.586C5.47181 106.574 3.44095 101.218 2.15015 95.663C1.34174 92.0782 0.885543 88.4093 0.405867 84.7572C0.140871 82.6554 0.120758 80.52 0 78.3913ZM80.3978 3.73604C72.6291 3.8302 65.823 4.50277 59.1176 6.15729C52.6768 7.75068 46.4736 10.1885 40.6685 13.4076C27.6513 20.5817 17.4372 30.6355 10.0262 43.569C7.3415 48.2788 5.2973 53.3275 3.94809 58.5808C2.91634 62.7645 2.24856 67.03 1.95225 71.3294C1.41405 78.1784 1.96546 85.0697 3.58583 91.7452C4.49123 95.4585 5.6673 99.1002 7.10458 102.641C10.7944 111.784 16.3123 119.707 23.4236 126.517C27.5718 130.506 32.1903 133.972 37.1766 136.838C44.62 141.102 52.5531 144.064 61.0363 145.383C64.9442 145.988 68.8923 146.392 72.8404 146.661C77.8485 146.997 82.823 146.304 87.764 145.578C89.7565 145.285 91.6886 144.569 93.6476 144.051C99.0419 142.655 104.276 140.698 109.266 138.213C122.854 131.35 133.679 121.476 141.582 108.422C146.657 100.072 149.968 90.7666 151.309 81.0816C152.47 72.8124 152.141 64.6272 149.968 56.5732C149.08 53.2314 147.982 49.9494 146.68 46.7469C142.531 36.7223 136.121 28.3084 127.872 21.3338C119.109 13.909 108.735 8.6426 97.5789 5.95552C91.9519 4.57835 86.1893 3.83393 80.3978 3.73604Z" fill="#AC3635"/>
<path d="M76.4128 55.8132C76.822 55.1978 77.0837 54.7506 77.399 54.3302C81.0251 49.3801 85.577 45.6137 91.3096 43.3337C94.8317 41.9348 98.4276 41.3362 102.164 42.2576C105.117 42.9816 107.727 44.714 109.544 47.1573C110.741 48.6571 111.844 50.2294 112.848 51.8653C116.474 58.0563 116.833 64.5768 114.589 71.3194C112.727 76.9286 109.816 81.9964 106.384 86.738C102.49 92.1186 98.4209 97.3848 94.3084 102.611C89.4647 108.782 84.0776 114.475 78.5999 120.098C76.3659 122.381 74.0044 124.543 71.7301 126.79C71.1431 127.371 70.6634 127.233 70.2273 126.709C68.1443 124.197 66.0478 121.692 64.015 119.136C57.5947 111.065 52.7208 102.052 47.9308 92.9761C46.2871 89.8655 44.4959 86.8255 42.6174 83.8493C40.9284 81.2248 39.6321 78.3663 38.7699 75.3649C37.9448 72.4022 36.9418 69.4429 36.5661 66.4163C35.8953 61.0862 36.2575 55.7897 38.9343 50.9237C40.2004 48.6275 42.0692 46.7226 44.3382 45.4153C48.028 42.9604 53.8378 41.8238 60.0736 42.8764C62.4739 43.3182 64.803 44.0852 66.9971 45.1564C71.3577 47.1741 73.9037 50.8362 75.9566 54.9591C76.064 55.1878 76.1814 55.3828 76.4128 55.8132Z" fill="#AC3635"/>
</svg>
