<svg width="76" height="76" viewBox="0 0 76 76" fill="none" xmlns="http://www.w3.org/2000/svg">
<path d="M35.6639 0H40.6531C40.8886 0.0649023 41.128 0.114572 41.3699 0.148699C46.6178 0.564145 51.7165 2.10221 56.3242 4.65972C62.9299 8.32033 68.0355 13.4712 71.5596 20.1977C73.5802 23.9948 74.9232 28.1181 75.5277 32.3808C75.7306 33.8594 75.8437 35.3514 76 36.8367V40.3369C75.9501 40.5791 75.8919 40.8181 75.8503 41.062C75.4745 43.2707 75.2184 45.5078 74.7061 47.6832C71.1804 62.7082 55.1916 75.2288 41.2086 75.9271C33.1776 76.3281 25.6522 74.893 18.6922 70.7996C4.07218 62.2003 -3.22703 44.888 1.36471 28.4762C5.62051 13.2724 15.7536 3.97805 31.1802 0.641562C32.6471 0.327461 34.1671 0.210514 35.6639 0ZM66.4107 58.142C72.9266 49.8484 75.4412 33.8694 68.137 21.0798C60.5933 7.8709 45.6124 1.00413 30.7761 4.05825C16.0796 7.08398 5.12158 19.3707 3.51505 34.7482C1.99833 49.2503 10.2555 61.41 16.956 65.5033C18.7338 56.7269 22.4658 49.1735 30.2173 44.0894C29.8465 43.7719 29.5305 43.5063 29.2195 43.234C27.2072 41.473 25.6106 39.4213 24.7176 36.8567C22.9796 31.8612 24.8323 23.9619 31.5212 20.2962C40.0793 15.6065 48.3781 20.6755 50.6914 27.4437C52.1033 31.5721 51.4531 35.6053 49.9497 39.5583C49.617 40.4455 49.0932 41.2641 48.7207 41.9909C51.1022 43.1771 53.5635 44.1629 55.7671 45.5513C60.5817 48.5987 64.8474 52.2042 66.4124 58.1471L66.4107 58.142Z" fill="#60A96E"/>
</svg>
